<svg width="751" height="752" xmlns="http://www.w3.org/2000/svg" xmlns:xlink="http://www.w3.org/1999/xlink" overflow="hidden"><defs><clipPath id="clip0"><rect x="651" y="469" width="751" height="752"/></clipPath></defs><g clip-path="url(#clip0)" transform="translate(-651 -469)"><path d="M1024.5 904C1153.47 904 1264.13 1019.8 1311.4 1184.83L1319 1221 730 1221 737.603 1184.83C784.871 1019.8 895.528 904 1024.5 904Z" fill="#767171" fill-rule="evenodd"/><path d="M842 690C842 589.484 923.708 508 1024.5 508 1125.29 508 1207 589.484 1207 690 1207 790.516 1125.29 872 1024.5 872 923.708 872 842 790.516 842 690Z" fill="#767171" fill-rule="evenodd"/><path d="M1243.43 603 1339 603 1326.94 616.196C1227.66 732.551 1133.03 863.906 1043.78 1008.77L967.487 1139.05 947.012 1175.69 923.626 1219.84 923.026 1218.62 922.256 1220 913.111 1200.84C855.693 1088.61 784.585 996.02 704.029 930.059L664 900.729 791.489 900.729 804.934 908.837C834.203 929.236 862.38 953.054 889.282 979.987L916.417 1009.41 939.494 972.513C1007.25 869.386 1078.69 776.017 1153.34 693.406Z" fill="#01A601" fill-rule="evenodd"/></g></svg>