<svg width="760" height="759" xmlns="http://www.w3.org/2000/svg" xmlns:xlink="http://www.w3.org/1999/xlink" overflow="hidden"><defs><clipPath id="clip0"><rect x="1753" y="767" width="760" height="759"/></clipPath></defs><g clip-path="url(#clip0)" transform="translate(-1753 -767)"><path d="M1942 1146.5C1942 1041.29 2027.51 956 2133 956 2238.49 956 2324 1041.29 2324 1146.5 2324 1251.71 2238.49 1337 2133 1337 2027.51 1337 1942 1251.71 1942 1146.5Z" fill="#FFC000" fill-rule="evenodd"/><path d="M2057 1526 2094.75 1375 2171.25 1375 2209 1526Z" fill="#FFC000" fill-rule="evenodd"/><path d="M0 151 37.7499 0 113.25 0 151 151Z" fill="#FFC000" fill-rule="evenodd" transform="matrix(1 0 0 -1 2049 918)"/><path d="M1753 1075 1904 1112.75 1904 1188.25 1753 1226Z" fill="#FFC000" fill-rule="evenodd"/><path d="M0 151 37.75 0 114.25 0 152 151Z" fill="#FFC000" fill-rule="evenodd" transform="matrix(6.12323e-17 1 1 -6.12323e-17 2362 1066)"/><path d="M1874.46 1437.55 1982.83 1325.47 2048.33 1363.28 2005.45 1513.17Z" fill="#FFC000" fill-rule="evenodd"/><path d="M0 151.25 37.8125 0 113.438 0 151.25 151.25Z" fill="#FFC000" fill-rule="evenodd" transform="matrix(0.866025 0.5 0.5 -0.866025 2171.24 906.329)"/><path d="M1836.59 894.712 1948.67 1003.08 1910.85 1068.58 1760.96 1025.7Z" fill="#FFC000" fill-rule="evenodd"/><path d="M0 151.25 37.8125 0 113.438 0 151.25 151.25Z" fill="#FFC000" fill-rule="evenodd" transform="matrix(-0.5 0.866025 0.866025 0.5 2367.8 1191.49)"/><path d="M1763.11 1270.84 1913 1227.96 1950.81 1293.45 1838.73 1401.82Z" fill="#FFC000" fill-rule="evenodd"/><path d="M0 151.25 37.8125 0 113.438 0 151.25 151.25Z" fill="#FFC000" fill-rule="evenodd" transform="matrix(0.5 0.866025 0.866025 -0.5 2285.73 959.175)"/><path d="M2001.73 781.788 2044.6 931.681 1979.11 969.493 1870.74 857.413Z" fill="#FFC000" fill-rule="evenodd"/><path d="M0 151.25 37.8125 0 113.438 0 151.25 151.25Z" fill="#FFC000" fill-rule="evenodd" transform="matrix(-0.866025 0.5 0.5 0.866025 2313.39 1304.41)"/></g></svg>