<svg width="974" height="652" xmlns="http://www.w3.org/2000/svg" xmlns:xlink="http://www.w3.org/1999/xlink" overflow="hidden"><defs><clipPath id="clip0"><rect x="1655" y="1443" width="974" height="652"/></clipPath></defs><g clip-path="url(#clip0)" transform="translate(-1655 -1443)"><rect x="1655" y="1444" width="974" height="649" fill="#012169"/><path d="M2629 1515.97 2629 1443 2519.82 1443 1655 2020.75 1655 2092 1765.04 2092 2629 1515.97Z" fill="#FFFFFF" fill-rule="evenodd"/><rect x="2061" y="1444" width="163" height="649" fill="#FFFFFF"/><path d="M1764.18 1443 1655 1443 1655 1516.86 2520.68 2094 2629 2094 2629 2021 1764.18 1443Z" fill="#FFFFFF" fill-rule="evenodd"/><path d="M2061 1760 1655 1492.07 1655 1443 2061 1710.93Z" fill="#C8102E" fill-rule="evenodd"/><path d="M2628 2095 2222 1827.07 2222 1778 2628 2045.93Z" fill="#C8102E" fill-rule="evenodd"/><rect x="1655" y="1660" width="974" height="217" fill="#FFFFFF"/><rect x="2093" y="1444" width="98" height="649" fill="#C8102E"/><rect x="1655" y="1703" width="974" height="131" fill="#C8102E"/><path d="M2233 1659 2554.65 1443 2629 1443 2307.35 1659Z" fill="#C8102E" fill-rule="evenodd"/><path d="M1656 2092 1979.14 1875 2052 1875 1728.86 2092Z" fill="#C8102E" fill-rule="evenodd"/></g></svg>