<svg width="723" height="877" xmlns="http://www.w3.org/2000/svg" xmlns:xlink="http://www.w3.org/1999/xlink" overflow="hidden"><defs><clipPath id="clip0"><rect x="2482" y="388" width="723" height="877"/></clipPath></defs><g clip-path="url(#clip0)" transform="translate(-2482 -388)"><path d="M2968.7 759 2983.45 776.877C3004 807.292 3016 843.959 3016 883.428 3016 988.678 2930.68 1074 2825.43 1074 2785.96 1074 2749.29 1062 2718.88 1041.45L2701 1026.7Z" fill="#FFC000" fill-rule="evenodd"/><path d="M2750 1265 2787.75 1114 2863.25 1114 2901 1265Z" fill="#FFC000" fill-rule="evenodd"/><path d="M0 151 37.7499 0 113.25 0 151 151Z" fill="#FFC000" fill-rule="evenodd" transform="matrix(6.12323e-17 1 1 -6.12323e-17 3054 805)"/><path d="M2566.77 1176.3 2675.14 1064.22 2740.64 1102.03 2697.76 1251.92Z" fill="#FFC000" fill-rule="evenodd"/><path d="M0 151.25 37.8125 0 113.438 0 151.25 151.25Z" fill="#FFC000" fill-rule="evenodd" transform="matrix(-0.5 0.866025 0.866025 0.5 3060.12 930.239)"/><path d="M0 151.25 37.8125 0 113.438 0 151.25 151.25Z" fill="#FFC000" fill-rule="evenodd" transform="matrix(0.5 0.866025 0.866025 -0.5 2978.05 697.925)"/><path d="M0 151.25 37.8125 0 113.438 0 151.25 151.25Z" fill="#FFC000" fill-rule="evenodd" transform="matrix(-0.866025 0.5 0.5 0.866025 3005.7 1043.16)"/><path d="M2893 388 2884.3 406.061C2855.38 474.428 2839.38 549.594 2839.38 628.494 2839.38 682.738 2846.94 735.217 2861.07 784.935L2882.68 845.146 2700.79 1027 2695.55 1021.23C2638.98 952.696 2605 864.838 2605 769.045 2605 591.144 2722.2 440.611 2883.61 390.415Z" fill="#3B3838" fill-rule="evenodd"/><path d="M0 0 651.062 651.062" stroke="#000000" stroke-width="27.5" stroke-linecap="round" stroke-miterlimit="8" fill="none" fill-rule="evenodd" transform="matrix(1 0 0 -1 2496 1230.06)"/></g></svg>